<?xml version="1.0" standalone="no"?>
<!DOCTYPE svg PUBLIC "-//W3C//DTD SVG 20010904//EN"
 "http://www.w3.org/TR/2001/REC-SVG-20010904/DTD/svg10.dtd">
<svg version="1.0" xmlns="http://www.w3.org/2000/svg"
 width="226.000000pt" height="228.000000pt" viewBox="0 0 226.000000 228.000000"
 preserveAspectRatio="xMidYMid meet">
<metadata>
Created by potrace 1.16, written by Peter Selinger 2001-2019
</metadata>
<g transform="translate(0.000000,228.000000) scale(0.100000,-0.100000)"
fill="#000000" stroke="none">
<path d="M0 1140 l0 -1140 1130 0 1130 0 0 1140 0 1140 -1130 0 -1130 0 0
-1140z m516 645 c-6 -18 -11 -384 -4 -390 3 -4 67 107 171 295 24 45 31 50 61
50 l33 0 7 -62 c22 -216 30 -278 38 -278 9 0 81 152 140 296 l42 104 38 0 c21
0 38 -4 38 -9 0 -18 -112 -268 -173 -386 l-62 -120 -41 -3 c-48 -3 -41 -23
-69 198 -9 69 -18 126 -20 128 -1 2 -22 -32 -45 -75 -24 -43 -67 -117 -97
-165 -53 -86 -55 -88 -92 -88 l-38 0 -7 61 c-3 34 -6 124 -6 199 0 75 3 165 6
199 l7 61 39 0 c32 0 39 -3 34 -15z m1317 -843 c27 -12 27 -12 12 -43 -12 -23
-21 -29 -33 -23 -117 50 -230 7 -286 -109 -67 -135 -35 -267 67 -282 38 -6
106 4 151 21 15 6 17 2 14 -27 -2 -29 -8 -36 -38 -46 -19 -7 -64 -12 -100 -12
-148 -1 -221 82 -206 237 12 132 93 247 203 288 44 16 173 14 216 -4z"/>
</g>
</svg>
