<?xml version="1.0" standalone="no"?>
<!DOCTYPE svg PUBLIC "-//W3C//DTD SVG 20010904//EN"
 "http://www.w3.org/TR/2001/REC-SVG-20010904/DTD/svg10.dtd">
<svg version="1.0" xmlns="http://www.w3.org/2000/svg"
 width="226.000000pt" height="228.000000pt" viewBox="0 0 226.000000 228.000000"
 preserveAspectRatio="xMidYMid meet">
<metadata>
Created by potrace 1.16, written by Peter Selinger 2001-2019
</metadata>
<g transform="translate(0.000000,228.000000) scale(0.100000,-0.100000)"
fill="#000000" stroke="none">
<path d="M0 1140 l0 -1140 1130 0 1130 0 0 1140 0 1140 -1130 0 -1130 0 0
-1140z m497 511 c-3 -16 -9 -140 -13 -276 -5 -189 -4 -246 5 -241 15 10 108
168 196 334 l70 132 46 0 46 0 7 -72 c16 -181 39 -374 45 -386 9 -15 94 158
186 380 l64 153 55 3 56 3 -36 -83 c-91 -215 -161 -365 -222 -479 l-67 -124
-52 -3 c-42 -2 -52 0 -57 15 -5 19 -41 278 -51 376 l-7 59 -87 -154 c-48 -84
-109 -186 -134 -225 l-47 -73 -49 0 c-48 0 -49 0 -56 38 -9 47 -8 590 1 626 6
24 10 26 56 26 50 0 50 0 45 -29z m1445 -716 l37 -18 -20 -39 c-16 -30 -24
-38 -37 -32 -33 14 -117 34 -142 34 -42 0 -95 -19 -139 -48 -158 -106 -207
-420 -79 -497 47 -28 155 -27 222 3 27 12 51 20 53 18 3 -2 7 -22 10 -44 5
-38 4 -39 -38 -57 -59 -23 -195 -31 -254 -15 -57 16 -128 78 -149 130 -50 126
-15 320 80 445 36 48 117 106 178 127 67 24 223 20 278 -7z"/>
</g>
</svg>
